<?xml version="1.0" encoding="UTF-8" standalone="no"?>
<svg
   version="1.1"
   x="0px"
   y="0px"
   viewBox="0 0 100 100"
   enable-background="new 0 0 100 100"
   xml:space="preserve"
   id="svg425"
   sodipodi:docname="RSS-icon.svg"
   inkscape:version="1.2 (dc2aedaf03, 2022-05-15)"
   xmlns:inkscape="http://www.inkscape.org/namespaces/inkscape"
   xmlns:sodipodi="http://sodipodi.sourceforge.net/DTD/sodipodi-0.dtd"
   xmlns="http://www.w3.org/2000/svg"
   xmlns:svg="http://www.w3.org/2000/svg"><defs
     id="defs429"><filter
       style="color-interpolation-filters:sRGB;"
       inkscape:label="Invert"
       id="filter435"
       x="0"
       y="0"
       width="1"
       height="1"><feColorMatrix
         type="hueRotate"
         values="180"
         result="color1"
         id="feColorMatrix431" /><feColorMatrix
         values="-1 0 0 0 1 0 -1 0 0 1 0 0 -1 0 1 -0.21 -0.72 -0.07 2 0 "
         result="color2"
         id="feColorMatrix433" /></filter></defs><sodipodi:namedview
     id="namedview427"
     pagecolor="#ffffff"
     bordercolor="#000000"
     borderopacity="0.25"
     inkscape:showpageshadow="2"
     inkscape:pageopacity="0.0"
     inkscape:pagecheckerboard="0"
     inkscape:deskcolor="#d1d1d1"
     showgrid="false"
     inkscape:zoom="8.04"
     inkscape:cx="45.460199"
     inkscape:cy="50.062189"
     inkscape:window-width="1920"
     inkscape:window-height="991"
     inkscape:window-x="-9"
     inkscape:window-y="-9"
     inkscape:window-maximized="1"
     inkscape:current-layer="svg425" /><path
     d="M17.1,70.8c-6.7,0-12,5.5-12,12.1c0,6.7,5.3,12.1,12,12.1c6.7,0,12.1-5.3,12.1-12.1C29.1,76.3,23.7,70.8,17.1,70.8  L17.1,70.8z M5.8,36v15.8c11.3,0.2,21.8,4.6,29.8,12.6c8,8.1,12.4,18.6,12.6,29.9h15.9C63.6,62.3,37.8,36.3,5.8,36L5.8,36z M5.9,5  v15.8C46,21.2,78.7,54,79.2,94.3H95C94.6,45.3,54.8,5.4,5.9,5z"
     id="path423"
     style="filter:url(#filter435)" /></svg>
